<svg width="591" height="591" viewBox="0 0 591 591" fill="none" xmlns="http://www.w3.org/2000/svg"> <path d="M295.5 589.523C457.884 589.523 589.523 457.884 589.523 295.5C589.523 133.116 457.884 1.47754 295.5 1.47754C133.116 1.47754 1.47751 133.116 1.47751 295.5C1.47751 457.884 133.116 589.523 295.5 589.523Z" fill="#1E1E1E"></path> <path d="M568.838 295.5H564.405C564.405 369.671 534.264 437.045 485.507 485.507C437.045 534.264 369.671 564.405 295.5 564.405C221.33 564.405 153.956 534.264 105.494 485.507C56.736 437.045 26.595 369.671 26.595 295.5C26.595 221.329 56.736 153.955 105.494 105.493C153.956 56.736 221.33 26.595 295.5 26.595C369.671 26.595 437.045 56.736 485.507 105.493C534.264 153.955 564.405 221.329 564.405 295.5H568.838H573.27C573.27 142.135 448.865 17.73 295.5 17.73C142.136 17.73 17.73 142.135 17.73 295.5C17.73 448.865 142.136 573.27 295.5 573.27C448.865 573.27 573.27 448.865 573.27 295.5H568.838Z" fill="white"></path> <path d="M227.83 365.238C227.83 366.716 227.83 367.898 227.535 369.08C227.239 370.262 227.239 371.148 226.648 371.739C226.353 372.33 225.762 372.921 225.171 373.217C224.58 373.512 223.989 373.808 223.398 373.808H136.521C134.748 373.808 132.975 373.217 131.202 372.035C129.724 370.853 128.838 368.489 128.838 365.238V225.171C128.838 221.921 129.724 219.852 131.202 218.375C132.679 217.193 134.748 216.602 136.521 216.602H224.284C224.875 216.602 225.466 216.897 226.057 217.193C226.648 217.488 226.944 218.079 227.239 218.67C227.535 219.261 227.83 220.148 227.83 221.33C228.126 222.512 228.126 223.989 228.126 225.467C228.126 226.944 227.83 228.126 227.83 229.308C227.535 230.49 227.239 231.377 227.239 231.968C226.944 232.559 226.648 233.15 226.057 233.445C225.466 233.741 224.875 234.036 224.284 234.036H149.523V283.68H202.122C202.713 283.68 203.304 283.976 203.895 284.271C204.486 284.567 204.781 285.158 205.077 285.749C205.372 286.34 205.668 287.226 205.668 288.408C205.963 289.59 205.963 291.068 205.963 292.25C205.963 293.727 205.963 294.909 205.668 296.091C205.372 297.273 205.372 298.16 205.077 298.751C204.781 299.342 204.19 299.933 203.895 300.228C203.304 300.524 202.713 300.524 202.122 300.524H149.523V356.669H223.398C223.989 356.669 224.58 356.964 225.171 357.26C225.762 357.555 226.353 358.146 226.648 358.737C226.944 359.328 227.239 360.215 227.535 361.397C227.83 362.579 227.83 363.761 227.83 365.238Z" fill="white"></path> <path d="M268.905 394.197C269.496 394.197 270.087 394.492 270.383 394.788C270.974 395.083 271.269 395.674 271.565 396.265C271.86 397.152 272.156 398.038 272.156 399.516C272.451 400.698 272.451 402.471 272.451 404.539C272.451 406.608 272.156 408.085 272.156 409.563C271.86 411.04 271.86 412.222 271.565 412.813C271.269 413.7 270.974 414.291 270.383 414.291C269.792 414.586 269.201 414.882 268.905 414.882H133.271C132.68 414.882 132.089 414.586 131.793 414.291C131.202 413.995 130.907 413.404 130.611 412.518C130.316 411.631 130.02 410.449 130.02 409.267C129.725 408.085 129.725 406.312 129.725 404.539C129.725 402.471 130.02 400.698 130.02 399.516C130.02 398.334 130.316 397.152 130.611 396.265C130.907 395.379 131.202 394.788 131.793 394.788C132.384 394.492 132.975 394.197 133.271 394.197H268.905Z" fill="#ED1C24"></path> <path d="M429.066 361.101C429.361 361.692 429.657 362.283 429.657 362.579C429.657 363.17 429.361 363.761 429.066 364.647C428.77 365.238 427.884 366.125 426.997 367.307C426.111 368.489 424.929 369.375 423.451 370.853C421.974 372.035 420.496 372.921 419.61 373.808C418.428 374.399 417.541 374.99 416.655 375.285C415.768 375.581 415.177 375.581 414.586 375.581C413.995 375.285 413.404 374.99 413.109 374.399L290.772 227.24C290.476 226.649 290.181 226.058 290.181 225.762C290.181 225.171 290.476 224.58 290.772 223.694C291.363 223.103 291.954 222.216 292.84 221.034C293.727 219.852 294.909 218.966 296.386 217.784C297.864 216.602 299.341 215.42 300.523 214.829C301.705 214.238 302.592 213.647 303.478 213.351C304.069 213.056 304.956 213.056 305.547 213.056C306.138 213.351 306.729 213.647 307.024 214.238L429.066 361.101Z" fill="white"></path> <path d="M445.614 177.005C445.91 176.414 446.501 176.118 447.092 175.823C447.683 175.527 448.274 175.527 449.16 176.118C449.751 176.414 450.933 176.709 452.115 177.596C453.297 178.187 454.479 179.073 456.252 180.551C457.73 181.733 458.616 182.915 459.798 183.801C460.685 184.983 461.276 185.87 461.867 186.461C462.458 187.052 462.458 187.938 462.458 188.529C462.458 189.12 462.162 189.711 461.867 190.007L271.565 413.996C271.269 414.587 270.678 414.882 270.087 415.178C269.496 415.473 268.905 415.473 268.019 414.882C267.428 414.587 266.246 413.995 265.064 413.405C263.882 412.814 262.7 411.632 261.222 410.45C259.745 409.268 258.563 407.79 257.676 406.904C256.79 405.722 256.199 405.131 255.608 404.244C255.312 403.653 255.017 402.767 255.017 402.176C255.017 401.585 255.312 400.994 255.608 400.698L445.614 177.005Z" fill="#ED1C24"></path> </svg>